<svg width="30" height="25" viewBox="0 0 30 25" fill="none" xmlns="http://www.w3.org/2000/svg">
<path d="M19.1016 0.296873L17.9531 4.43945C19.8945 4.43945 21.207 5.0957 21.8906 6.4082C22.6016 7.74804 22.957 9.79883 22.957 12.5605L17.3789 12.5605L17.3789 24.0039L29.1094 24.0039C29.1094 18.9453 29.082 15.9102 29.0273 14.8984C28.8906 9.86718 28.0977 6.17578 26.6484 3.82422C25.2266 1.47265 22.7109 0.296872 19.1016 0.296873ZM2.08008 0.296874L0.931639 4.43945C2.87304 4.43945 4.18555 5.0957 4.86914 6.4082C5.58008 7.74805 5.93555 9.79883 5.93555 12.5605L0.357421 12.5605L0.357422 24.0039L12.0879 24.0039C12.0879 18.9453 12.0605 15.9102 12.0059 14.8984C11.8418 9.83984 11.0352 6.13476 9.58594 3.7832C8.16406 1.45898 5.66211 0.296874 2.08008 0.296874Z" fill="#0A72CD"/>
</svg>
